<svg width="164" height="28" viewBox="0 0 164 28" fill="none" xmlns="http://www.w3.org/2000/svg">
<path d="M1.704 5.864H4.872L12.696 18.488H12.744V5.864H15.6V23H12.432L4.632 10.4H4.56V23H1.704V5.864ZM28.6723 20.24C28.6723 20.576 28.7123 20.816 28.7923 20.96C28.8883 21.104 29.0643 21.176 29.3203 21.176C29.4003 21.176 29.4963 21.176 29.6083 21.176C29.7203 21.176 29.8483 21.16 29.9923 21.128V23.024C29.8963 23.056 29.7683 23.088 29.6083 23.12C29.4643 23.168 29.3123 23.208 29.1523 23.24C28.9923 23.272 28.8323 23.296 28.6723 23.312C28.5123 23.328 28.3763 23.336 28.2643 23.336C27.7043 23.336 27.2403 23.224 26.8723 23C26.5043 22.776 26.2643 22.384 26.1523 21.824C25.6083 22.352 24.9363 22.736 24.1363 22.976C23.3523 23.216 22.5923 23.336 21.8563 23.336C21.2963 23.336 20.7603 23.256 20.2483 23.096C19.7363 22.952 19.2803 22.736 18.8803 22.448C18.4963 22.144 18.1843 21.768 17.9443 21.32C17.7203 20.856 17.6083 20.32 17.6083 19.712C17.6083 18.944 17.7443 18.32 18.0163 17.84C18.3043 17.36 18.6723 16.984 19.1203 16.712C19.5843 16.44 20.0963 16.248 20.6563 16.136C21.2323 16.008 21.8083 15.912 22.3843 15.848C22.8803 15.752 23.3523 15.688 23.8003 15.656C24.2483 15.608 24.6403 15.536 24.9763 15.44C25.3283 15.344 25.6003 15.2 25.7923 15.008C26.0003 14.8 26.1043 14.496 26.1043 14.096C26.1043 13.744 26.0163 13.456 25.8403 13.232C25.6803 13.008 25.4723 12.84 25.2163 12.728C24.9763 12.6 24.7043 12.52 24.4003 12.488C24.0963 12.44 23.8083 12.416 23.5363 12.416C22.7683 12.416 22.1363 12.576 21.6403 12.896C21.1443 13.216 20.8643 13.712 20.8003 14.384H18.0643C18.1123 13.584 18.3043 12.92 18.6403 12.392C18.9763 11.864 19.4003 11.44 19.9123 11.12C20.4403 10.8 21.0323 10.576 21.6883 10.448C22.3443 10.32 23.0163 10.256 23.7043 10.256C24.3123 10.256 24.9123 10.32 25.5043 10.448C26.0963 10.576 26.6243 10.784 27.0883 11.072C27.5683 11.36 27.9523 11.736 28.2403 12.2C28.5283 12.648 28.6723 13.2 28.6723 13.856V20.24ZM25.9363 16.784C25.5203 17.056 25.0083 17.224 24.4003 17.288C23.7923 17.336 23.1843 17.416 22.5763 17.528C22.2883 17.576 22.0083 17.648 21.7363 17.744C21.4643 17.824 21.2243 17.944 21.0163 18.104C20.8083 18.248 20.6403 18.448 20.5123 18.704C20.4003 18.944 20.3443 19.24 20.3443 19.592C20.3443 19.896 20.4323 20.152 20.6083 20.36C20.7843 20.568 20.9923 20.736 21.2323 20.864C21.4883 20.976 21.7603 21.056 22.0483 21.104C22.3523 21.152 22.6243 21.176 22.8643 21.176C23.1683 21.176 23.4963 21.136 23.8483 21.056C24.2003 20.976 24.5283 20.84 24.8323 20.648C25.1523 20.456 25.4163 20.216 25.6243 19.928C25.8323 19.624 25.9363 19.256 25.9363 18.824V16.784ZM31.1363 10.592H33.7283V12.416L33.7763 12.464C34.1923 11.776 34.7363 11.24 35.4083 10.856C36.0803 10.456 36.8243 10.256 37.6403 10.256C39.0003 10.256 40.0723 10.608 40.8563 11.312C41.6403 12.016 42.0323 13.072 42.0323 14.48V23H39.2963V15.2C39.2643 14.224 39.0563 13.52 38.6723 13.088C38.2883 12.64 37.6883 12.416 36.8723 12.416C36.4083 12.416 35.9923 12.504 35.6243 12.68C35.2563 12.84 34.9443 13.072 34.6883 13.376C34.4323 13.664 34.2323 14.008 34.0883 14.408C33.9443 14.808 33.8723 15.232 33.8723 15.68V23H31.1363V10.592ZM44.4375 10.592H47.0295V12.416L47.0775 12.464C47.4935 11.776 48.0375 11.24 48.7095 10.856C49.3815 10.456 50.1255 10.256 50.9415 10.256C52.3015 10.256 53.3735 10.608 54.1575 11.312C54.9415 12.016 55.3335 13.072 55.3335 14.48V23H52.5975V15.2C52.5655 14.224 52.3575 13.52 51.9735 13.088C51.5895 12.64 50.9895 12.416 50.1735 12.416C49.7095 12.416 49.2935 12.504 48.9255 12.68C48.5575 12.84 48.2455 13.072 47.9895 13.376C47.7335 13.664 47.5335 14.008 47.3895 14.408C47.2455 14.808 47.1735 15.232 47.1735 15.68V23H44.4375V10.592ZM56.3708 10.592H59.3708L62.6108 19.856H62.6588L65.8028 10.592H68.6588L63.8348 23.672C63.6108 24.232 63.3868 24.768 63.1628 25.28C62.9548 25.792 62.6908 26.24 62.3708 26.624C62.0668 27.024 61.6828 27.336 61.2188 27.56C60.7548 27.8 60.1628 27.92 59.4428 27.92C58.8028 27.92 58.1708 27.872 57.5468 27.776V25.472C57.7708 25.504 57.9868 25.536 58.1948 25.568C58.4028 25.616 58.6188 25.64 58.8428 25.64C59.1628 25.64 59.4268 25.6 59.6348 25.52C59.8428 25.44 60.0108 25.32 60.1388 25.16C60.2828 25.016 60.4028 24.84 60.4988 24.632C60.5948 24.424 60.6828 24.184 60.7628 23.912L61.0748 22.952L56.3708 10.592ZM67.7169 19.76H71.0529V23H67.7169V19.76ZM76.0526 17.288C76.0526 17.944 76.1646 18.504 76.3886 18.968C76.6126 19.432 76.9246 19.816 77.3246 20.12C77.7246 20.408 78.1806 20.624 78.6926 20.768C79.2206 20.896 79.7886 20.96 80.3966 20.96C81.0526 20.96 81.6126 20.888 82.0766 20.744C82.5406 20.584 82.9166 20.384 83.2046 20.144C83.4926 19.904 83.7006 19.632 83.8286 19.328C83.9566 19.008 84.0206 18.688 84.0206 18.368C84.0206 17.712 83.8686 17.232 83.5646 16.928C83.2766 16.608 82.9566 16.384 82.6046 16.256C81.9966 16.032 81.2846 15.824 80.4686 15.632C79.6686 15.424 78.6766 15.16 77.4926 14.84C76.7566 14.648 76.1406 14.4 75.6446 14.096C75.1646 13.776 74.7806 13.424 74.4926 13.04C74.2046 12.656 73.9966 12.248 73.8686 11.816C73.7566 11.384 73.7006 10.944 73.7006 10.496C73.7006 9.632 73.8766 8.888 74.2286 8.264C74.5966 7.624 75.0766 7.096 75.6686 6.68C76.2606 6.264 76.9326 5.96 77.6846 5.768C78.4366 5.56 79.1966 5.456 79.9646 5.456C80.8606 5.456 81.7006 5.576 82.4846 5.816C83.2846 6.04 83.9806 6.384 84.5726 6.848C85.1806 7.312 85.6606 7.888 86.0126 8.576C86.3646 9.248 86.5406 10.032 86.5406 10.928H83.5406C83.4606 9.824 83.0846 9.048 82.4126 8.6C81.7406 8.136 80.8846 7.904 79.8446 7.904C79.4926 7.904 79.1326 7.944 78.7646 8.024C78.3966 8.088 78.0606 8.208 77.7566 8.384C77.4526 8.544 77.1966 8.768 76.9886 9.056C76.7966 9.344 76.7006 9.704 76.7006 10.136C76.7006 10.744 76.8846 11.224 77.2526 11.576C77.6366 11.912 78.1326 12.168 78.7406 12.344C78.8046 12.36 79.0526 12.432 79.4846 12.56C79.9326 12.672 80.4286 12.8 80.9726 12.944C81.5166 13.088 82.0446 13.232 82.5566 13.376C83.0846 13.504 83.4606 13.6 83.6846 13.664C84.2446 13.84 84.7326 14.08 85.1486 14.384C85.5646 14.688 85.9086 15.04 86.1806 15.44C86.4686 15.824 86.6766 16.24 86.8046 16.688C86.9486 17.136 87.0206 17.584 87.0206 18.032C87.0206 18.992 86.8206 19.816 86.4206 20.504C86.0366 21.176 85.5246 21.728 84.8846 22.16C84.2446 22.592 83.5166 22.904 82.7006 23.096C81.8846 23.304 81.0526 23.408 80.2046 23.408C79.2286 23.408 78.3086 23.288 77.4446 23.048C76.5806 22.808 75.8286 22.44 75.1886 21.944C74.5486 21.448 74.0366 20.816 73.6526 20.048C73.2686 19.264 73.0686 18.344 73.0526 17.288H76.0526ZM97.3031 15.704C97.2711 15.272 97.1751 14.856 97.0151 14.456C96.8711 14.056 96.6631 13.712 96.3911 13.424C96.1351 13.12 95.8151 12.88 95.4311 12.704C95.0631 12.512 94.6471 12.416 94.1831 12.416C93.7031 12.416 93.2631 12.504 92.8631 12.68C92.4791 12.84 92.1431 13.072 91.8551 13.376C91.5831 13.664 91.3591 14.008 91.1831 14.408C91.0231 14.808 90.9351 15.24 90.9191 15.704H97.3031ZM90.9191 17.504C90.9191 17.984 90.9831 18.448 91.1111 18.896C91.2551 19.344 91.4631 19.736 91.7351 20.072C92.0071 20.408 92.3511 20.68 92.7671 20.888C93.1831 21.08 93.6791 21.176 94.2551 21.176C95.0551 21.176 95.6951 21.008 96.1751 20.672C96.6711 20.32 97.0391 19.8 97.2791 19.112H99.8711C99.7271 19.784 99.4791 20.384 99.1271 20.912C98.7751 21.44 98.3511 21.888 97.8551 22.256C97.3591 22.608 96.7991 22.872 96.1751 23.048C95.5671 23.24 94.9271 23.336 94.2551 23.336C93.2791 23.336 92.4151 23.176 91.6631 22.856C90.9111 22.536 90.2711 22.088 89.7431 21.512C89.2311 20.936 88.8391 20.248 88.5671 19.448C88.3111 18.648 88.1831 17.768 88.1831 16.808C88.1831 15.928 88.3191 15.096 88.5911 14.312C88.8791 13.512 89.2791 12.816 89.7911 12.224C90.3191 11.616 90.9511 11.136 91.6871 10.784C92.4231 10.432 93.2551 10.256 94.1831 10.256C95.1591 10.256 96.0311 10.464 96.7991 10.88C97.5831 11.28 98.2311 11.816 98.7431 12.488C99.2551 13.16 99.6231 13.936 99.8471 14.816C100.087 15.68 100.151 16.576 100.039 17.504H90.9191ZM101.639 10.592H104.207V12.992H104.255C104.335 12.656 104.487 12.328 104.711 12.008C104.951 11.688 105.231 11.4 105.551 11.144C105.887 10.872 106.255 10.656 106.655 10.496C107.055 10.336 107.463 10.256 107.879 10.256C108.199 10.256 108.415 10.264 108.527 10.28C108.655 10.296 108.783 10.312 108.911 10.328V12.968C108.719 12.936 108.519 12.912 108.311 12.896C108.119 12.864 107.927 12.848 107.735 12.848C107.271 12.848 106.831 12.944 106.415 13.136C106.015 13.312 105.663 13.584 105.359 13.952C105.055 14.304 104.815 14.744 104.639 15.272C104.463 15.8 104.375 16.408 104.375 17.096V23H101.639V10.592ZM108.373 10.592H111.349L114.493 20.12H114.541L117.565 10.592H120.397L115.957 23H112.885L108.373 10.592ZM121.634 5.864H124.37V8.456H121.634V5.864ZM121.634 10.592H124.37V23H121.634V10.592ZM135.247 14.744C135.135 13.976 134.823 13.4 134.311 13.016C133.815 12.616 133.183 12.416 132.415 12.416C132.063 12.416 131.687 12.48 131.287 12.608C130.887 12.72 130.519 12.944 130.183 13.28C129.847 13.6 129.567 14.056 129.343 14.648C129.119 15.224 129.007 15.984 129.007 16.928C129.007 17.44 129.063 17.952 129.175 18.464C129.303 18.976 129.495 19.432 129.751 19.832C130.023 20.232 130.367 20.56 130.783 20.816C131.199 21.056 131.703 21.176 132.295 21.176C133.095 21.176 133.751 20.928 134.263 20.432C134.791 19.936 135.119 19.24 135.247 18.344H137.983C137.727 19.96 137.111 21.2 136.135 22.064C135.175 22.912 133.895 23.336 132.295 23.336C131.319 23.336 130.455 23.176 129.703 22.856C128.967 22.52 128.343 22.072 127.831 21.512C127.319 20.936 126.927 20.256 126.655 19.472C126.399 18.688 126.271 17.84 126.271 16.928C126.271 16 126.399 15.128 126.655 14.312C126.911 13.496 127.295 12.792 127.807 12.2C128.319 11.592 128.951 11.12 129.703 10.784C130.471 10.432 131.367 10.256 132.391 10.256C133.111 10.256 133.791 10.352 134.431 10.544C135.087 10.72 135.663 10.992 136.159 11.36C136.671 11.728 137.087 12.192 137.407 12.752C137.727 13.312 137.919 13.976 137.983 14.744H135.247ZM148.247 15.704C148.215 15.272 148.119 14.856 147.959 14.456C147.815 14.056 147.607 13.712 147.335 13.424C147.079 13.12 146.759 12.88 146.375 12.704C146.007 12.512 145.591 12.416 145.127 12.416C144.647 12.416 144.207 12.504 143.807 12.68C143.423 12.84 143.087 13.072 142.799 13.376C142.527 13.664 142.303 14.008 142.127 14.408C141.967 14.808 141.879 15.24 141.863 15.704H148.247ZM141.863 17.504C141.863 17.984 141.927 18.448 142.055 18.896C142.199 19.344 142.407 19.736 142.679 20.072C142.951 20.408 143.295 20.68 143.711 20.888C144.127 21.08 144.623 21.176 145.199 21.176C145.999 21.176 146.639 21.008 147.119 20.672C147.615 20.32 147.983 19.8 148.223 19.112H150.815C150.671 19.784 150.423 20.384 150.071 20.912C149.719 21.44 149.295 21.888 148.799 22.256C148.303 22.608 147.743 22.872 147.119 23.048C146.511 23.24 145.871 23.336 145.199 23.336C144.223 23.336 143.359 23.176 142.607 22.856C141.855 22.536 141.215 22.088 140.687 21.512C140.175 20.936 139.783 20.248 139.511 19.448C139.255 18.648 139.127 17.768 139.127 16.808C139.127 15.928 139.263 15.096 139.535 14.312C139.823 13.512 140.223 12.816 140.735 12.224C141.263 11.616 141.895 11.136 142.631 10.784C143.367 10.432 144.199 10.256 145.127 10.256C146.103 10.256 146.975 10.464 147.743 10.88C148.527 11.28 149.175 11.816 149.687 12.488C150.199 13.16 150.567 13.936 150.791 14.816C151.031 15.68 151.095 16.576 150.983 17.504H141.863ZM154.647 19.016C154.727 19.816 155.031 20.376 155.559 20.696C156.087 21.016 156.719 21.176 157.455 21.176C157.711 21.176 157.999 21.16 158.319 21.128C158.655 21.08 158.967 21 159.255 20.888C159.543 20.776 159.775 20.616 159.951 20.408C160.143 20.184 160.231 19.896 160.215 19.544C160.199 19.192 160.071 18.904 159.831 18.68C159.591 18.456 159.279 18.28 158.895 18.152C158.527 18.008 158.103 17.888 157.623 17.792C157.143 17.696 156.655 17.592 156.159 17.48C155.647 17.368 155.151 17.232 154.671 17.072C154.207 16.912 153.783 16.696 153.399 16.424C153.031 16.152 152.735 15.808 152.511 15.392C152.287 14.96 152.175 14.432 152.175 13.808C152.175 13.136 152.335 12.576 152.655 12.128C152.991 11.664 153.407 11.296 153.903 11.024C154.415 10.736 154.975 10.536 155.583 10.424C156.207 10.312 156.799 10.256 157.359 10.256C157.999 10.256 158.607 10.328 159.183 10.472C159.775 10.6 160.303 10.816 160.767 11.12C161.247 11.424 161.639 11.824 161.943 12.32C162.263 12.8 162.463 13.384 162.543 14.072H159.687C159.559 13.416 159.255 12.976 158.775 12.752C158.311 12.528 157.775 12.416 157.167 12.416C156.975 12.416 156.743 12.432 156.471 12.464C156.215 12.496 155.967 12.56 155.727 12.656C155.503 12.736 155.311 12.864 155.151 13.04C154.991 13.2 154.911 13.416 154.911 13.688C154.911 14.024 155.023 14.296 155.247 14.504C155.487 14.712 155.791 14.888 156.159 15.032C156.543 15.16 156.975 15.272 157.455 15.368C157.935 15.464 158.431 15.568 158.943 15.68C159.439 15.792 159.927 15.928 160.407 16.088C160.887 16.248 161.311 16.464 161.679 16.736C162.063 17.008 162.367 17.352 162.591 17.768C162.831 18.184 162.951 18.696 162.951 19.304C162.951 20.04 162.783 20.664 162.447 21.176C162.111 21.688 161.671 22.104 161.127 22.424C160.599 22.744 160.007 22.976 159.351 23.12C158.695 23.264 158.047 23.336 157.407 23.336C156.623 23.336 155.895 23.248 155.223 23.072C154.567 22.896 153.991 22.632 153.495 22.28C153.015 21.912 152.631 21.464 152.343 20.936C152.071 20.392 151.927 19.752 151.911 19.016H154.647Z" fill="#FBFBFB"/>
</svg>
